<svg width="40" height="40" viewBox="0 0 40 40" fill="none" xmlns="http://www.w3.org/2000/svg">
<g clip-path="url(#clip0_1_121)">
<path d="M0.691767 18.66L10.4734 23.535C10.8518 23.7217 11.2984 23.7083 11.6601 23.4967L20.3668 18.435L15.0968 23.105C14.8284 23.3433 14.6751 23.6833 14.6751 24.0417V35.4167C14.6751 36.6167 16.2068 37.1217 16.9251 36.1683L21.1534 30.5467L31.6101 36.5017C32.3434 36.9233 33.2834 36.5 33.4534 35.6617L39.9751 3.16166C40.1701 2.18499 39.1984 1.38832 38.2951 1.75166L0.795101 16.3767C-0.211566 16.77 -0.276566 18.1783 0.691767 18.66ZM37.0751 4.91166L31.3434 33.4733L21.4351 27.83C20.8951 27.5217 20.2001 27.6583 19.8168 28.165L17.1751 31.6767V24.6033L31.4268 11.9767C32.5551 10.9783 31.2584 9.20332 29.9701 9.95999L10.9868 20.9967L4.33343 17.6817L37.0751 4.91166Z" fill="#726DA8"/>
</g>
<defs>
<clipPath id="clip0_1_121">
<rect width="40" height="40" fill="white"/>
</clipPath>
</defs>
</svg>
