<svg width="39" height="34" viewBox="0 0 39 34" fill="none" xmlns="http://www.w3.org/2000/svg">
<path d="M25.6787 18.3513C23.9508 15.6557 21.008 14.0461 17.8064 14.0461C14.6048 14.0461 11.662 15.6557 9.93431 18.3513L5.77065 24.8467C5.07983 25.9242 4.76108 27.1693 4.84868 28.4464C4.93628 29.7237 5.42231 30.9132 6.25403 31.887C7.08635 32.86 8.18615 33.525 9.43451 33.8104C10.6829 34.0957 11.9626 33.9738 13.135 33.4585L13.2135 33.4237C16.1637 32.1528 19.5349 32.1645 22.4775 33.4585C23.2366 33.7922 24.0408 33.961 24.8523 33.961C25.2935 33.961 25.7374 33.9109 26.1771 33.8107C27.4255 33.5256 28.5253 32.8606 29.3579 31.8873C30.1899 30.9144 30.6762 29.7246 30.7641 28.447C30.852 27.1693 30.5333 25.9245 29.8424 24.8464L25.6787 18.3513Z" fill="#726DA8"/>
<path d="M6.89214 18.3428C8.13078 17.867 9.07182 16.8688 9.54174 15.532C9.9891 14.26 9.9525 12.8238 9.4383 11.4879C8.92386 10.1528 7.9881 9.06296 6.80334 8.41874C5.55882 7.7423 4.19153 7.63214 2.95492 8.10878C0.467024 9.0653 -0.674676 12.1398 0.410188 14.9637C1.27679 17.2113 3.29798 18.6302 5.34144 18.6302C5.86322 18.6302 6.38646 18.5376 6.89214 18.3428Z" fill="#726DA8"/>
<path d="M14.971 13.2539C18.0812 13.2539 20.6115 10.3711 20.6115 6.82764C20.6115 3.2833 18.0812 0.399902 14.971 0.399902C11.8611 0.399902 9.33105 3.2833 9.33105 6.82764C9.33105 10.3711 11.8611 13.2539 14.971 13.2539Z" fill="#726DA8"/>
<path d="M24.7121 14.8326H24.7124C25.1908 14.9914 25.6789 15.0673 26.1649 15.0673C28.4331 15.0673 30.6435 13.4164 31.487 10.8793C31.9727 9.41883 31.9408 7.87461 31.397 6.53133C30.8281 5.12511 29.7737 4.10439 28.4278 3.65701C27.0816 3.20965 25.6258 3.39627 24.3283 4.18203C23.0887 4.93263 22.1389 6.15044 21.6538 7.61091C20.6299 10.6918 22.0018 13.9314 24.7121 14.8326Z" fill="#726DA8"/>
<path d="M36.5906 14.0827L36.5897 14.0818C34.4449 12.4974 31.2372 13.1841 29.4387 15.6134C27.6419 18.0439 27.9228 21.3114 30.0644 22.8969C30.8455 23.4755 31.7684 23.7521 32.7129 23.7521C34.359 23.7521 36.0717 22.9119 37.2167 21.3667C39.0132 18.9363 38.7325 15.6688 36.5906 14.0827Z" fill="#726DA8"/>
</svg>
