<svg width="68" height="13" viewBox="0 0 68 13" fill="none" xmlns="http://www.w3.org/2000/svg">
<path d="M5.81764 0.43985C6.83686 0.43985 7.72163 0.60785 8.47205 0.94385C9.23345 1.27985 9.81604 1.76147 10.2192 2.38865C10.6224 3.01583 10.824 3.76067 10.824 4.62305C10.824 5.47427 10.6224 6.21905 10.2192 6.85745C9.81604 7.48463 9.23345 7.96625 8.47205 8.30225C7.72163 8.63825 6.83686 8.80625 5.81764 8.80625H3.16325V12.1999H0.979248V0.43985H5.81764ZM5.71685 6.95825C6.66886 6.95825 7.39126 6.75665 7.88404 6.35345C8.37682 5.95025 8.62325 5.37347 8.62325 4.62305C8.62325 3.87263 8.37682 3.29585 7.88404 2.89265C7.39126 2.48945 6.66886 2.28785 5.71685 2.28785H3.16325V6.95825H5.71685ZM21.204 7.76465C21.204 7.91027 21.1932 8.11745 21.1704 8.38625H14.1312C14.2548 9.04703 14.574 9.57347 15.0888 9.96545C15.6156 10.3463 16.2648 10.5367 17.0376 10.5367C18.0234 10.5367 18.8352 10.2119 19.4736 9.56225L20.5992 10.8559C20.196 11.3375 19.6866 11.7014 19.0704 11.9479C18.4548 12.1943 17.76 12.3175 16.9872 12.3175C16.002 12.3175 15.1338 12.1214 14.3832 11.7295C13.6332 11.3375 13.0506 10.7942 12.636 10.0999C12.2328 9.39425 12.0312 8.59907 12.0312 7.71425C12.0312 6.84065 12.2274 6.05663 12.6192 5.36225C13.0224 4.65665 13.5768 4.10783 14.2824 3.71585C14.988 3.32387 15.7836 3.12785 16.668 3.12785C17.5416 3.12785 18.3204 3.32387 19.0032 3.71585C19.698 4.09667 20.2356 4.63985 20.616 5.34545C21.0084 6.03983 21.204 6.84623 21.204 7.76465ZM16.668 4.80785C15.996 4.80785 15.4248 5.00945 14.9544 5.41265C14.4954 5.80463 14.2152 6.33107 14.1144 6.99185H19.2048C19.1154 6.34223 18.8412 5.81585 18.3816 5.41265C17.9226 5.00945 17.3514 4.80785 16.668 4.80785ZM28.614 11.7127C28.368 11.9143 28.0656 12.0655 27.7068 12.1663C27.36 12.2671 26.9904 12.3175 26.598 12.3175C25.6128 12.3175 24.8508 12.0599 24.3132 11.5447C23.7756 11.0294 23.5068 10.2791 23.5068 9.29345V4.97585H22.0284V3.29585H23.5068V1.24625H25.6068V3.29585H28.0092V4.97585H25.6068V9.24305C25.6068 9.67985 25.7136 10.0159 25.926 10.2511C26.139 10.475 26.4468 10.5871 26.85 10.5871C27.3204 10.5871 27.7128 10.4639 28.026 10.2175L28.614 11.7127ZM35.9862 12.3679C34.7994 12.3679 33.7242 12.1103 32.7606 11.5951C31.809 11.0687 31.0584 10.3463 30.5094 9.42785C29.9718 8.50943 29.703 7.47347 29.703 6.31985C29.703 5.16623 29.9778 4.13027 30.5262 3.21185C31.0752 2.29343 31.8258 1.57667 32.7774 1.06145C33.741 0.535071 34.8162 0.271851 36.003 0.271851C36.9666 0.271851 37.8456 0.43985 38.6406 0.77585C39.4362 1.11185 40.1082 1.59905 40.6566 2.23745L39.2454 3.56465C38.3946 2.64623 37.347 2.18705 36.1038 2.18705C35.2974 2.18705 34.575 2.36627 33.9366 2.72465C33.2982 3.07187 32.8002 3.55907 32.4414 4.18625C32.0832 4.81343 31.9038 5.52467 31.9038 6.31985C31.9038 7.11503 32.0832 7.82627 32.4414 8.45345C32.8002 9.08063 33.2982 9.57347 33.9366 9.93185C34.575 10.2791 35.2974 10.4527 36.1038 10.4527C37.347 10.4527 38.3946 9.98783 39.2454 9.05825L40.6566 10.4023C40.1082 11.0407 39.4302 11.5279 38.6238 11.8639C37.8288 12.1999 36.9498 12.3679 35.9862 12.3679ZM45.8928 3.12785C47.2146 3.12785 48.2226 3.44705 48.9168 4.08545C49.6224 4.71263 49.9752 5.66465 49.9752 6.94145V12.1999H47.9928V11.1079C47.7354 11.4998 47.3658 11.8022 46.884 12.0151C46.4136 12.2167 45.8424 12.3175 45.1704 12.3175C44.4984 12.3175 43.9104 12.2054 43.4064 11.9815C42.9024 11.7463 42.5106 11.4271 42.2304 11.0239C41.9616 10.6094 41.8272 10.1447 41.8272 9.62945C41.8272 8.82305 42.1242 8.17907 42.7176 7.69745C43.3224 7.20467 44.2692 6.95825 45.5568 6.95825H47.8752V6.82385C47.8752 6.19667 47.685 5.71505 47.304 5.37905C46.9344 5.04305 46.38 4.87505 45.6408 4.87505C45.1368 4.87505 44.6388 4.95347 44.1456 5.11025C43.6644 5.26703 43.2552 5.48543 42.9192 5.76545L42.096 4.23665C42.5664 3.87827 43.1322 3.60383 43.7928 3.41345C44.454 3.22307 45.1536 3.12785 45.8928 3.12785ZM45.6072 10.7887C46.134 10.7887 46.5984 10.6711 47.0016 10.4359C47.4162 10.1894 47.7072 9.84227 47.8752 9.39425V8.35265H45.708C44.4984 8.35265 43.8936 8.75027 43.8936 9.54545C43.8936 9.92627 44.0448 10.2287 44.3472 10.4527C44.6496 10.6766 45.0696 10.7887 45.6072 10.7887ZM54.6696 4.53905C55.2744 3.59825 56.3388 3.12785 57.8616 3.12785V5.12705C57.6828 5.09345 57.5202 5.07665 57.3744 5.07665C56.5572 5.07665 55.9188 5.31743 55.4592 5.79905C55.0002 6.26945 54.7704 6.95267 54.7704 7.84865V12.1999H52.6704V3.22865H54.6696V4.53905ZM67.995 7.76465C67.995 7.91027 67.9836 8.11745 67.9614 8.38625H60.9222C61.0452 9.04703 61.3644 9.57347 61.8798 9.96545C62.406 10.3463 63.0558 10.5367 63.8286 10.5367C64.8138 10.5367 65.6262 10.2119 66.2646 9.56225L67.3902 10.8559C66.987 11.3375 66.477 11.7014 65.8614 11.9479C65.2452 12.1943 64.551 12.3175 63.7782 12.3175C62.7924 12.3175 61.9242 12.1214 61.1742 11.7295C60.4236 11.3375 59.841 10.7942 59.427 10.0999C59.0238 9.39425 58.8222 8.59907 58.8222 7.71425C58.8222 6.84065 59.0178 6.05663 59.4102 5.36225C59.8134 4.65665 60.3678 4.10783 61.0734 3.71585C61.779 3.32387 62.574 3.12785 63.459 3.12785C64.3326 3.12785 65.1108 3.32387 65.7942 3.71585C66.4884 4.09667 67.026 4.63985 67.407 5.34545C67.7988 6.03983 67.995 6.84623 67.995 7.76465ZM63.459 4.80785C62.787 4.80785 62.2158 5.00945 61.7454 5.41265C61.2858 5.80463 61.0062 6.33107 60.9054 6.99185H65.9958C65.9058 6.34223 65.6316 5.81585 65.1726 5.41265C64.713 5.00945 64.1418 4.80785 63.459 4.80785Z" fill="#333333"/>
</svg>
