<svg width="24" height="25" viewBox="0 0 24 25" fill="none" xmlns="http://www.w3.org/2000/svg">
<path d="M13.5374 12.4926L23.6775 1.94596C23.8828 1.73218 23.9981 1.44224 23.9981 1.13992C23.9981 0.837593 23.8828 0.54765 23.6775 0.333874C23.4722 0.120098 23.1937 0 22.9033 0C22.613 0 22.3345 0.120098 22.1292 0.333874L12 10.8919L1.87079 0.333874C1.66548 0.120098 1.38701 -2.2525e-09 1.09666 0C0.806299 2.2525e-09 0.527833 0.120098 0.322519 0.333874C0.117205 0.54765 0.00186077 0.837593 0.00186076 1.13992C0.00186076 1.44224 0.117205 1.73218 0.322519 1.94596L10.4626 12.4926L0.322519 23.0393C0.220324 23.1449 0.139209 23.2704 0.0838545 23.4088C0.0284997 23.5471 0 23.6955 0 23.8454C0 23.9952 0.0284997 24.1436 0.0838545 24.282C0.139209 24.4203 0.220324 24.5459 0.322519 24.6514C0.42388 24.7578 0.544472 24.8423 0.677339 24.8999C0.810206 24.9575 0.952719 24.9872 1.09666 24.9872C1.24059 24.9872 1.38311 24.9575 1.51597 24.8999C1.64884 24.8423 1.76943 24.7578 1.87079 24.6514L12 14.0934L22.1292 24.6514C22.2306 24.7578 22.3512 24.8423 22.484 24.8999C22.6169 24.9575 22.7594 24.9872 22.9033 24.9872C23.0473 24.9872 23.1898 24.9575 23.3227 24.8999C23.4555 24.8423 23.5761 24.7578 23.6775 24.6514C23.7797 24.5459 23.8608 24.4203 23.9161 24.282C23.9715 24.1436 24 23.9952 24 23.8454C24 23.6955 23.9715 23.5471 23.9161 23.4088C23.8608 23.2704 23.7797 23.1449 23.6775 23.0393L13.5374 12.4926Z" fill="#394573"/>
</svg>
